<svg width="25" height="27" viewBox="0 0 25 27" fill="none" xmlns="http://www.w3.org/2000/svg">
<path fill-rule="evenodd" clip-rule="evenodd" d="M12.5 6.01389C8.08172 6.01389 4.5 9.84434 4.5 14.5694C4.5 19.2945 8.08172 23.125 12.5 23.125C16.9183 23.125 20.5 19.2945 20.5 14.5694C20.5 9.84434 16.9183 6.01389 12.5 6.01389ZM2.5 14.5694C2.5 8.66307 6.97715 3.875 12.5 3.875C18.0228 3.875 22.5 8.66307 22.5 14.5694C22.5 20.4758 18.0228 25.2639 12.5 25.2639C6.97715 25.2639 2.5 20.4758 2.5 14.5694ZM14.2071 10.6049C14.5976 11.0225 14.5976 11.6997 14.2071 12.1173L11.9142 14.5694L14.2071 17.0216C14.5976 17.4392 14.5976 18.1163 14.2071 18.534C13.8166 18.9516 13.1834 18.9516 12.7929 18.534L9.79289 15.3257C9.40237 14.908 9.40237 14.2309 9.79289 13.8132L12.7929 10.6049C13.1834 10.1873 13.8166 10.1873 14.2071 10.6049Z" fill="black"/>
</svg>
